<mxfile host="app.diagrams.net" modified="2023-05-09T04:51:05.648Z" agent="Mozilla/5.0 (Windows NT 10.0; Win64; x64) AppleWebKit/537.36 (KHTML, like Gecko) Chrome/112.0.0.0 Safari/537.36" etag="lSTWHcKN87bRLiQ5nsH2" version="21.1.8" type="device">
  <diagram id="R2lEEEUBdFMjLlhIrx00" name="Page-1">
    <mxGraphModel dx="683" dy="364" grid="1" gridSize="10" guides="1" tooltips="1" connect="1" arrows="1" fold="1" page="1" pageScale="1" pageWidth="3300" pageHeight="4681" math="0" shadow="0" extFonts="Permanent Marker^https://fonts.googleapis.com/css?family=Permanent+Marker">
      <root>
        <mxCell id="0" />
        <mxCell id="1" parent="0" />
        <mxCell id="C-vyLk0tnHw3VtMMgP7b-1" value="" style="edgeStyle=entityRelationEdgeStyle;endArrow=ERzeroToMany;startArrow=ERone;endFill=1;startFill=0;" parent="1" target="C-vyLk0tnHw3VtMMgP7b-6" edge="1">
          <mxGeometry width="100" height="100" relative="1" as="geometry">
            <mxPoint x="370" y="155" as="sourcePoint" />
            <mxPoint x="440" y="620" as="targetPoint" />
          </mxGeometry>
        </mxCell>
        <mxCell id="C-vyLk0tnHw3VtMMgP7b-12" value="" style="edgeStyle=entityRelationEdgeStyle;endArrow=ERzeroToMany;startArrow=ERone;endFill=1;startFill=0;" parent="1" target="C-vyLk0tnHw3VtMMgP7b-17" edge="1">
          <mxGeometry width="100" height="100" relative="1" as="geometry">
            <mxPoint x="700" y="165" as="sourcePoint" />
            <mxPoint x="460" y="205" as="targetPoint" />
          </mxGeometry>
        </mxCell>
        <mxCell id="LrqFi6MrWJt78rN_CnwS-1" value="Chan Model" style="text;html=1;align=center;verticalAlign=middle;resizable=0;points=[];autosize=1;strokeColor=none;fillColor=none;" vertex="1" parent="1">
          <mxGeometry x="30" y="40" width="90" height="30" as="geometry" />
        </mxCell>
        <mxCell id="LrqFi6MrWJt78rN_CnwS-2" value="Craw Foot Model" style="text;html=1;align=center;verticalAlign=middle;resizable=0;points=[];autosize=1;strokeColor=none;fillColor=none;" vertex="1" parent="1">
          <mxGeometry x="650" y="50" width="110" height="30" as="geometry" />
        </mxCell>
        <mxCell id="LrqFi6MrWJt78rN_CnwS-6" value="" style="edgeStyle=orthogonalEdgeStyle;rounded=0;orthogonalLoop=1;jettySize=auto;html=1;endArrow=none;endFill=0;" edge="1" parent="1" source="LrqFi6MrWJt78rN_CnwS-3" target="LrqFi6MrWJt78rN_CnwS-5">
          <mxGeometry relative="1" as="geometry" />
        </mxCell>
        <mxCell id="LrqFi6MrWJt78rN_CnwS-3" value="매장" style="whiteSpace=wrap;html=1;align=center;" vertex="1" parent="1">
          <mxGeometry x="40" y="130" width="100" height="40" as="geometry" />
        </mxCell>
        <mxCell id="LrqFi6MrWJt78rN_CnwS-8" value="" style="edgeStyle=orthogonalEdgeStyle;rounded=0;orthogonalLoop=1;jettySize=auto;html=1;endArrow=none;endFill=0;" edge="1" parent="1" source="LrqFi6MrWJt78rN_CnwS-5" target="LrqFi6MrWJt78rN_CnwS-7">
          <mxGeometry relative="1" as="geometry" />
        </mxCell>
        <mxCell id="LrqFi6MrWJt78rN_CnwS-5" value="소속" style="rhombus;whiteSpace=wrap;html=1;" vertex="1" parent="1">
          <mxGeometry x="210" y="120" width="80" height="60" as="geometry" />
        </mxCell>
        <mxCell id="LrqFi6MrWJt78rN_CnwS-7" value="종업원" style="whiteSpace=wrap;html=1;" vertex="1" parent="1">
          <mxGeometry x="350" y="130" width="100" height="40" as="geometry" />
        </mxCell>
        <mxCell id="LrqFi6MrWJt78rN_CnwS-9" value="1" style="text;html=1;align=center;verticalAlign=middle;resizable=0;points=[];autosize=1;strokeColor=none;fillColor=none;" vertex="1" parent="1">
          <mxGeometry x="195" y="110" width="30" height="30" as="geometry" />
        </mxCell>
        <mxCell id="LrqFi6MrWJt78rN_CnwS-10" value="N" style="text;html=1;align=center;verticalAlign=middle;resizable=0;points=[];autosize=1;strokeColor=none;fillColor=none;" vertex="1" parent="1">
          <mxGeometry x="270" y="110" width="30" height="30" as="geometry" />
        </mxCell>
        <mxCell id="LrqFi6MrWJt78rN_CnwS-15" value="" style="edgeStyle=orthogonalEdgeStyle;rounded=0;orthogonalLoop=1;jettySize=auto;html=1;endArrow=none;endFill=0;" edge="1" parent="1" source="LrqFi6MrWJt78rN_CnwS-11" target="LrqFi6MrWJt78rN_CnwS-3">
          <mxGeometry relative="1" as="geometry" />
        </mxCell>
        <mxCell id="LrqFi6MrWJt78rN_CnwS-11" value="&lt;u style=&quot;font-size: 8px;&quot;&gt;Code&lt;br style=&quot;font-size: 8px;&quot;&gt;(PK)&lt;br&gt;&lt;/u&gt;" style="ellipse;whiteSpace=wrap;html=1;" vertex="1" parent="1">
          <mxGeometry x="30" y="200" width="40" height="30" as="geometry" />
        </mxCell>
        <mxCell id="LrqFi6MrWJt78rN_CnwS-16" value="" style="edgeStyle=orthogonalEdgeStyle;rounded=0;orthogonalLoop=1;jettySize=auto;html=1;endArrow=none;endFill=0;" edge="1" parent="1" source="LrqFi6MrWJt78rN_CnwS-13" target="LrqFi6MrWJt78rN_CnwS-3">
          <mxGeometry relative="1" as="geometry" />
        </mxCell>
        <mxCell id="LrqFi6MrWJt78rN_CnwS-13" value="이름" style="ellipse;whiteSpace=wrap;html=1;" vertex="1" parent="1">
          <mxGeometry x="70" y="200" width="40" height="30" as="geometry" />
        </mxCell>
        <mxCell id="LrqFi6MrWJt78rN_CnwS-17" value="" style="edgeStyle=orthogonalEdgeStyle;rounded=0;orthogonalLoop=1;jettySize=auto;html=1;endArrow=none;endFill=0;" edge="1" parent="1" source="LrqFi6MrWJt78rN_CnwS-14" target="LrqFi6MrWJt78rN_CnwS-3">
          <mxGeometry relative="1" as="geometry">
            <Array as="points">
              <mxPoint x="130" y="180" />
              <mxPoint x="90" y="180" />
            </Array>
          </mxGeometry>
        </mxCell>
        <mxCell id="LrqFi6MrWJt78rN_CnwS-14" value="Tel" style="ellipse;whiteSpace=wrap;html=1;" vertex="1" parent="1">
          <mxGeometry x="110" y="200" width="40" height="30" as="geometry" />
        </mxCell>
        <mxCell id="LrqFi6MrWJt78rN_CnwS-21" value="" style="edgeStyle=orthogonalEdgeStyle;rounded=0;orthogonalLoop=1;jettySize=auto;html=1;endArrow=none;endFill=0;" edge="1" parent="1" source="LrqFi6MrWJt78rN_CnwS-18" target="LrqFi6MrWJt78rN_CnwS-7">
          <mxGeometry relative="1" as="geometry">
            <Array as="points">
              <mxPoint x="360" y="180" />
              <mxPoint x="400" y="180" />
            </Array>
          </mxGeometry>
        </mxCell>
        <mxCell id="LrqFi6MrWJt78rN_CnwS-18" value="사번&lt;br&gt;(PK)" style="ellipse;whiteSpace=wrap;html=1;" vertex="1" parent="1">
          <mxGeometry x="340" y="200" width="40" height="30" as="geometry" />
        </mxCell>
        <mxCell id="LrqFi6MrWJt78rN_CnwS-22" value="" style="edgeStyle=orthogonalEdgeStyle;rounded=0;orthogonalLoop=1;jettySize=auto;html=1;endArrow=none;endFill=0;" edge="1" parent="1" source="LrqFi6MrWJt78rN_CnwS-19" target="LrqFi6MrWJt78rN_CnwS-7">
          <mxGeometry relative="1" as="geometry" />
        </mxCell>
        <mxCell id="LrqFi6MrWJt78rN_CnwS-19" value="이름" style="ellipse;whiteSpace=wrap;html=1;" vertex="1" parent="1">
          <mxGeometry x="380" y="200" width="40" height="30" as="geometry" />
        </mxCell>
        <mxCell id="LrqFi6MrWJt78rN_CnwS-23" value="" style="edgeStyle=orthogonalEdgeStyle;rounded=0;orthogonalLoop=1;jettySize=auto;html=1;endArrow=none;endFill=0;" edge="1" parent="1" source="LrqFi6MrWJt78rN_CnwS-20" target="LrqFi6MrWJt78rN_CnwS-7">
          <mxGeometry relative="1" as="geometry">
            <Array as="points">
              <mxPoint x="440" y="180" />
              <mxPoint x="400" y="180" />
            </Array>
          </mxGeometry>
        </mxCell>
        <mxCell id="LrqFi6MrWJt78rN_CnwS-20" value="Phone" style="ellipse;whiteSpace=wrap;html=1;" vertex="1" parent="1">
          <mxGeometry x="420" y="200" width="40" height="30" as="geometry" />
        </mxCell>
        <mxCell id="LrqFi6MrWJt78rN_CnwS-25" value="" style="edgeStyle=orthogonalEdgeStyle;rounded=0;orthogonalLoop=1;jettySize=auto;html=1;endArrow=none;endFill=0;" edge="1" parent="1" source="LrqFi6MrWJt78rN_CnwS-24" target="LrqFi6MrWJt78rN_CnwS-7">
          <mxGeometry relative="1" as="geometry">
            <Array as="points">
              <mxPoint x="480" y="180" />
              <mxPoint x="400" y="180" />
            </Array>
          </mxGeometry>
        </mxCell>
        <mxCell id="LrqFi6MrWJt78rN_CnwS-24" value="Code&lt;br&gt;(FK)" style="ellipse;whiteSpace=wrap;html=1;" vertex="1" parent="1">
          <mxGeometry x="460" y="200" width="40" height="30" as="geometry" />
        </mxCell>
        <mxCell id="LrqFi6MrWJt78rN_CnwS-26" value="" style="edgeStyle=orthogonalEdgeStyle;rounded=0;orthogonalLoop=1;jettySize=auto;html=1;endArrow=none;endFill=0;" edge="1" parent="1" source="LrqFi6MrWJt78rN_CnwS-27" target="LrqFi6MrWJt78rN_CnwS-29">
          <mxGeometry relative="1" as="geometry" />
        </mxCell>
        <mxCell id="LrqFi6MrWJt78rN_CnwS-27" value="매장" style="whiteSpace=wrap;html=1;align=center;" vertex="1" parent="1">
          <mxGeometry x="40" y="290" width="100" height="40" as="geometry" />
        </mxCell>
        <mxCell id="LrqFi6MrWJt78rN_CnwS-28" value="" style="edgeStyle=orthogonalEdgeStyle;rounded=0;orthogonalLoop=1;jettySize=auto;html=1;endArrow=none;endFill=0;" edge="1" parent="1" source="LrqFi6MrWJt78rN_CnwS-29" target="LrqFi6MrWJt78rN_CnwS-30">
          <mxGeometry relative="1" as="geometry" />
        </mxCell>
        <mxCell id="LrqFi6MrWJt78rN_CnwS-29" value="소속" style="rhombus;whiteSpace=wrap;html=1;" vertex="1" parent="1">
          <mxGeometry x="210" y="280" width="80" height="60" as="geometry" />
        </mxCell>
        <mxCell id="LrqFi6MrWJt78rN_CnwS-30" value="종업원" style="whiteSpace=wrap;html=1;" vertex="1" parent="1">
          <mxGeometry x="350" y="290" width="100" height="40" as="geometry" />
        </mxCell>
        <mxCell id="LrqFi6MrWJt78rN_CnwS-31" value="1" style="text;html=1;align=center;verticalAlign=middle;resizable=0;points=[];autosize=1;strokeColor=none;fillColor=none;" vertex="1" parent="1">
          <mxGeometry x="195" y="260" width="30" height="30" as="geometry" />
        </mxCell>
        <mxCell id="LrqFi6MrWJt78rN_CnwS-52" value="" style="edgeStyle=orthogonalEdgeStyle;rounded=0;orthogonalLoop=1;jettySize=auto;html=1;exitX=0.5;exitY=1;exitDx=0;exitDy=0;endArrow=none;endFill=0;" edge="1" parent="1" source="LrqFi6MrWJt78rN_CnwS-29" target="LrqFi6MrWJt78rN_CnwS-50">
          <mxGeometry relative="1" as="geometry">
            <Array as="points">
              <mxPoint x="280" y="340" />
            </Array>
          </mxGeometry>
        </mxCell>
        <mxCell id="LrqFi6MrWJt78rN_CnwS-32" value="N" style="text;html=1;align=center;verticalAlign=middle;resizable=0;points=[];autosize=1;strokeColor=none;fillColor=none;" vertex="1" parent="1">
          <mxGeometry x="270" y="260" width="30" height="30" as="geometry" />
        </mxCell>
        <mxCell id="LrqFi6MrWJt78rN_CnwS-33" value="" style="edgeStyle=orthogonalEdgeStyle;rounded=0;orthogonalLoop=1;jettySize=auto;html=1;endArrow=none;endFill=0;" edge="1" parent="1" source="LrqFi6MrWJt78rN_CnwS-34" target="LrqFi6MrWJt78rN_CnwS-27">
          <mxGeometry relative="1" as="geometry" />
        </mxCell>
        <mxCell id="LrqFi6MrWJt78rN_CnwS-34" value="&lt;u style=&quot;font-size: 8px;&quot;&gt;Code&lt;br style=&quot;font-size: 8px;&quot;&gt;(PK)&lt;br&gt;&lt;/u&gt;" style="ellipse;whiteSpace=wrap;html=1;" vertex="1" parent="1">
          <mxGeometry x="30" y="360" width="40" height="30" as="geometry" />
        </mxCell>
        <mxCell id="LrqFi6MrWJt78rN_CnwS-35" value="" style="edgeStyle=orthogonalEdgeStyle;rounded=0;orthogonalLoop=1;jettySize=auto;html=1;endArrow=none;endFill=0;" edge="1" parent="1" source="LrqFi6MrWJt78rN_CnwS-36" target="LrqFi6MrWJt78rN_CnwS-27">
          <mxGeometry relative="1" as="geometry" />
        </mxCell>
        <mxCell id="LrqFi6MrWJt78rN_CnwS-36" value="이름" style="ellipse;whiteSpace=wrap;html=1;" vertex="1" parent="1">
          <mxGeometry x="70" y="360" width="40" height="30" as="geometry" />
        </mxCell>
        <mxCell id="LrqFi6MrWJt78rN_CnwS-37" value="" style="edgeStyle=orthogonalEdgeStyle;rounded=0;orthogonalLoop=1;jettySize=auto;html=1;endArrow=none;endFill=0;" edge="1" parent="1" source="LrqFi6MrWJt78rN_CnwS-38" target="LrqFi6MrWJt78rN_CnwS-27">
          <mxGeometry relative="1" as="geometry">
            <Array as="points">
              <mxPoint x="130" y="340" />
              <mxPoint x="90" y="340" />
            </Array>
          </mxGeometry>
        </mxCell>
        <mxCell id="LrqFi6MrWJt78rN_CnwS-38" value="Tel" style="ellipse;whiteSpace=wrap;html=1;" vertex="1" parent="1">
          <mxGeometry x="110" y="360" width="40" height="30" as="geometry" />
        </mxCell>
        <mxCell id="LrqFi6MrWJt78rN_CnwS-39" value="" style="edgeStyle=orthogonalEdgeStyle;rounded=0;orthogonalLoop=1;jettySize=auto;html=1;endArrow=none;endFill=0;" edge="1" parent="1" source="LrqFi6MrWJt78rN_CnwS-40" target="LrqFi6MrWJt78rN_CnwS-30">
          <mxGeometry relative="1" as="geometry">
            <Array as="points">
              <mxPoint x="360" y="340" />
              <mxPoint x="400" y="340" />
            </Array>
          </mxGeometry>
        </mxCell>
        <mxCell id="LrqFi6MrWJt78rN_CnwS-40" value="사번&lt;br&gt;(PK)" style="ellipse;whiteSpace=wrap;html=1;" vertex="1" parent="1">
          <mxGeometry x="340" y="360" width="40" height="30" as="geometry" />
        </mxCell>
        <mxCell id="LrqFi6MrWJt78rN_CnwS-41" value="" style="edgeStyle=orthogonalEdgeStyle;rounded=0;orthogonalLoop=1;jettySize=auto;html=1;endArrow=none;endFill=0;" edge="1" parent="1" source="LrqFi6MrWJt78rN_CnwS-42" target="LrqFi6MrWJt78rN_CnwS-30">
          <mxGeometry relative="1" as="geometry" />
        </mxCell>
        <mxCell id="LrqFi6MrWJt78rN_CnwS-42" value="이름" style="ellipse;whiteSpace=wrap;html=1;" vertex="1" parent="1">
          <mxGeometry x="380" y="360" width="40" height="30" as="geometry" />
        </mxCell>
        <mxCell id="LrqFi6MrWJt78rN_CnwS-43" value="" style="edgeStyle=orthogonalEdgeStyle;rounded=0;orthogonalLoop=1;jettySize=auto;html=1;endArrow=none;endFill=0;" edge="1" parent="1" source="LrqFi6MrWJt78rN_CnwS-44" target="LrqFi6MrWJt78rN_CnwS-30">
          <mxGeometry relative="1" as="geometry">
            <Array as="points">
              <mxPoint x="440" y="340" />
              <mxPoint x="400" y="340" />
            </Array>
          </mxGeometry>
        </mxCell>
        <mxCell id="LrqFi6MrWJt78rN_CnwS-44" value="Phone" style="ellipse;whiteSpace=wrap;html=1;" vertex="1" parent="1">
          <mxGeometry x="420" y="360" width="40" height="30" as="geometry" />
        </mxCell>
        <mxCell id="LrqFi6MrWJt78rN_CnwS-49" value="" style="edgeStyle=orthogonalEdgeStyle;rounded=0;orthogonalLoop=1;jettySize=auto;html=1;entryX=0.5;entryY=1;entryDx=0;entryDy=0;endArrow=none;endFill=0;" edge="1" parent="1" source="LrqFi6MrWJt78rN_CnwS-47" target="LrqFi6MrWJt78rN_CnwS-29">
          <mxGeometry relative="1" as="geometry" />
        </mxCell>
        <mxCell id="LrqFi6MrWJt78rN_CnwS-47" value="&lt;span style=&quot;font-size: 8px;&quot;&gt;Code&lt;br&gt;(FK)&lt;br&gt;&lt;/span&gt;" style="ellipse;whiteSpace=wrap;html=1;" vertex="1" parent="1">
          <mxGeometry x="200" y="360" width="40" height="30" as="geometry" />
        </mxCell>
        <mxCell id="LrqFi6MrWJt78rN_CnwS-50" value="사번&lt;br&gt;(FK)" style="ellipse;whiteSpace=wrap;html=1;" vertex="1" parent="1">
          <mxGeometry x="260" y="360" width="40" height="30" as="geometry" />
        </mxCell>
        <mxCell id="LrqFi6MrWJt78rN_CnwS-97" value="" style="edgeStyle=orthogonalEdgeStyle;rounded=0;orthogonalLoop=1;jettySize=auto;html=1;startArrow=ERone;startFill=0;endArrow=ERoneToMany;endFill=0;" edge="1" parent="1" source="LrqFi6MrWJt78rN_CnwS-53" target="LrqFi6MrWJt78rN_CnwS-81">
          <mxGeometry relative="1" as="geometry" />
        </mxCell>
        <mxCell id="LrqFi6MrWJt78rN_CnwS-53" value="매장" style="shape=table;startSize=30;container=1;collapsible=1;childLayout=tableLayout;fixedRows=1;rowLines=0;fontStyle=1;align=center;resizeLast=1;html=1;" vertex="1" parent="1">
          <mxGeometry x="625" y="110" width="160" height="180" as="geometry" />
        </mxCell>
        <mxCell id="LrqFi6MrWJt78rN_CnwS-54" value="" style="shape=tableRow;horizontal=0;startSize=0;swimlaneHead=0;swimlaneBody=0;fillColor=none;collapsible=0;dropTarget=0;points=[[0,0.5],[1,0.5]];portConstraint=eastwest;top=0;left=0;right=0;bottom=1;" vertex="1" parent="LrqFi6MrWJt78rN_CnwS-53">
          <mxGeometry y="30" width="160" height="30" as="geometry" />
        </mxCell>
        <mxCell id="LrqFi6MrWJt78rN_CnwS-55" value="PK" style="shape=partialRectangle;connectable=0;fillColor=none;top=0;left=0;bottom=0;right=0;fontStyle=1;overflow=hidden;whiteSpace=wrap;html=1;" vertex="1" parent="LrqFi6MrWJt78rN_CnwS-54">
          <mxGeometry width="30" height="30" as="geometry">
            <mxRectangle width="30" height="30" as="alternateBounds" />
          </mxGeometry>
        </mxCell>
        <mxCell id="LrqFi6MrWJt78rN_CnwS-56" value="CODE" style="shape=partialRectangle;connectable=0;fillColor=none;top=0;left=0;bottom=0;right=0;align=left;spacingLeft=6;fontStyle=5;overflow=hidden;whiteSpace=wrap;html=1;" vertex="1" parent="LrqFi6MrWJt78rN_CnwS-54">
          <mxGeometry x="30" width="130" height="30" as="geometry">
            <mxRectangle width="130" height="30" as="alternateBounds" />
          </mxGeometry>
        </mxCell>
        <mxCell id="LrqFi6MrWJt78rN_CnwS-57" value="" style="shape=tableRow;horizontal=0;startSize=0;swimlaneHead=0;swimlaneBody=0;fillColor=none;collapsible=0;dropTarget=0;points=[[0,0.5],[1,0.5]];portConstraint=eastwest;top=0;left=0;right=0;bottom=0;" vertex="1" parent="LrqFi6MrWJt78rN_CnwS-53">
          <mxGeometry y="60" width="160" height="30" as="geometry" />
        </mxCell>
        <mxCell id="LrqFi6MrWJt78rN_CnwS-58" value="" style="shape=partialRectangle;connectable=0;fillColor=none;top=0;left=0;bottom=0;right=0;editable=1;overflow=hidden;whiteSpace=wrap;html=1;" vertex="1" parent="LrqFi6MrWJt78rN_CnwS-57">
          <mxGeometry width="30" height="30" as="geometry">
            <mxRectangle width="30" height="30" as="alternateBounds" />
          </mxGeometry>
        </mxCell>
        <mxCell id="LrqFi6MrWJt78rN_CnwS-59" value="이름" style="shape=partialRectangle;connectable=0;fillColor=none;top=0;left=0;bottom=0;right=0;align=left;spacingLeft=6;overflow=hidden;whiteSpace=wrap;html=1;" vertex="1" parent="LrqFi6MrWJt78rN_CnwS-57">
          <mxGeometry x="30" width="130" height="30" as="geometry">
            <mxRectangle width="130" height="30" as="alternateBounds" />
          </mxGeometry>
        </mxCell>
        <mxCell id="LrqFi6MrWJt78rN_CnwS-60" value="" style="shape=tableRow;horizontal=0;startSize=0;swimlaneHead=0;swimlaneBody=0;fillColor=none;collapsible=0;dropTarget=0;points=[[0,0.5],[1,0.5]];portConstraint=eastwest;top=0;left=0;right=0;bottom=0;" vertex="1" parent="LrqFi6MrWJt78rN_CnwS-53">
          <mxGeometry y="90" width="160" height="30" as="geometry" />
        </mxCell>
        <mxCell id="LrqFi6MrWJt78rN_CnwS-61" value="" style="shape=partialRectangle;connectable=0;fillColor=none;top=0;left=0;bottom=0;right=0;editable=1;overflow=hidden;whiteSpace=wrap;html=1;" vertex="1" parent="LrqFi6MrWJt78rN_CnwS-60">
          <mxGeometry width="30" height="30" as="geometry">
            <mxRectangle width="30" height="30" as="alternateBounds" />
          </mxGeometry>
        </mxCell>
        <mxCell id="LrqFi6MrWJt78rN_CnwS-62" value="Tel" style="shape=partialRectangle;connectable=0;fillColor=none;top=0;left=0;bottom=0;right=0;align=left;spacingLeft=6;overflow=hidden;whiteSpace=wrap;html=1;" vertex="1" parent="LrqFi6MrWJt78rN_CnwS-60">
          <mxGeometry x="30" width="130" height="30" as="geometry">
            <mxRectangle width="130" height="30" as="alternateBounds" />
          </mxGeometry>
        </mxCell>
        <mxCell id="LrqFi6MrWJt78rN_CnwS-63" value="" style="shape=tableRow;horizontal=0;startSize=0;swimlaneHead=0;swimlaneBody=0;fillColor=none;collapsible=0;dropTarget=0;points=[[0,0.5],[1,0.5]];portConstraint=eastwest;top=0;left=0;right=0;bottom=0;" vertex="1" parent="LrqFi6MrWJt78rN_CnwS-53">
          <mxGeometry y="120" width="160" height="30" as="geometry" />
        </mxCell>
        <mxCell id="LrqFi6MrWJt78rN_CnwS-64" value="" style="shape=partialRectangle;connectable=0;fillColor=none;top=0;left=0;bottom=0;right=0;editable=1;overflow=hidden;whiteSpace=wrap;html=1;" vertex="1" parent="LrqFi6MrWJt78rN_CnwS-63">
          <mxGeometry width="30" height="30" as="geometry">
            <mxRectangle width="30" height="30" as="alternateBounds" />
          </mxGeometry>
        </mxCell>
        <mxCell id="LrqFi6MrWJt78rN_CnwS-65" value="주소" style="shape=partialRectangle;connectable=0;fillColor=none;top=0;left=0;bottom=0;right=0;align=left;spacingLeft=6;overflow=hidden;whiteSpace=wrap;html=1;" vertex="1" parent="LrqFi6MrWJt78rN_CnwS-63">
          <mxGeometry x="30" width="130" height="30" as="geometry">
            <mxRectangle width="130" height="30" as="alternateBounds" />
          </mxGeometry>
        </mxCell>
        <mxCell id="LrqFi6MrWJt78rN_CnwS-66" value="" style="shape=tableRow;horizontal=0;startSize=0;swimlaneHead=0;swimlaneBody=0;fillColor=none;collapsible=0;dropTarget=0;points=[[0,0.5],[1,0.5]];portConstraint=eastwest;top=0;left=0;right=0;bottom=0;" vertex="1" parent="LrqFi6MrWJt78rN_CnwS-53">
          <mxGeometry y="150" width="160" height="30" as="geometry" />
        </mxCell>
        <mxCell id="LrqFi6MrWJt78rN_CnwS-67" value="" style="shape=partialRectangle;connectable=0;fillColor=none;top=0;left=0;bottom=0;right=0;editable=1;overflow=hidden;whiteSpace=wrap;html=1;" vertex="1" parent="LrqFi6MrWJt78rN_CnwS-66">
          <mxGeometry width="30" height="30" as="geometry">
            <mxRectangle width="30" height="30" as="alternateBounds" />
          </mxGeometry>
        </mxCell>
        <mxCell id="LrqFi6MrWJt78rN_CnwS-68" value="ETC.." style="shape=partialRectangle;connectable=0;fillColor=none;top=0;left=0;bottom=0;right=0;align=left;spacingLeft=6;overflow=hidden;whiteSpace=wrap;html=1;" vertex="1" parent="LrqFi6MrWJt78rN_CnwS-66">
          <mxGeometry x="30" width="130" height="30" as="geometry">
            <mxRectangle width="130" height="30" as="alternateBounds" />
          </mxGeometry>
        </mxCell>
        <mxCell id="LrqFi6MrWJt78rN_CnwS-81" value="종업원" style="shape=table;startSize=30;container=1;collapsible=1;childLayout=tableLayout;fixedRows=1;rowLines=0;fontStyle=1;align=center;resizeLast=1;html=1;" vertex="1" parent="1">
          <mxGeometry x="950" y="110" width="160" height="180" as="geometry" />
        </mxCell>
        <mxCell id="LrqFi6MrWJt78rN_CnwS-82" value="" style="shape=tableRow;horizontal=0;startSize=0;swimlaneHead=0;swimlaneBody=0;fillColor=none;collapsible=0;dropTarget=0;points=[[0,0.5],[1,0.5]];portConstraint=eastwest;top=0;left=0;right=0;bottom=1;" vertex="1" parent="LrqFi6MrWJt78rN_CnwS-81">
          <mxGeometry y="30" width="160" height="30" as="geometry" />
        </mxCell>
        <mxCell id="LrqFi6MrWJt78rN_CnwS-83" value="PK" style="shape=partialRectangle;connectable=0;fillColor=none;top=0;left=0;bottom=0;right=0;fontStyle=1;overflow=hidden;whiteSpace=wrap;html=1;" vertex="1" parent="LrqFi6MrWJt78rN_CnwS-82">
          <mxGeometry width="30" height="30" as="geometry">
            <mxRectangle width="30" height="30" as="alternateBounds" />
          </mxGeometry>
        </mxCell>
        <mxCell id="LrqFi6MrWJt78rN_CnwS-84" value="사번" style="shape=partialRectangle;connectable=0;fillColor=none;top=0;left=0;bottom=0;right=0;align=left;spacingLeft=6;fontStyle=5;overflow=hidden;whiteSpace=wrap;html=1;" vertex="1" parent="LrqFi6MrWJt78rN_CnwS-82">
          <mxGeometry x="30" width="130" height="30" as="geometry">
            <mxRectangle width="130" height="30" as="alternateBounds" />
          </mxGeometry>
        </mxCell>
        <mxCell id="LrqFi6MrWJt78rN_CnwS-85" value="" style="shape=tableRow;horizontal=0;startSize=0;swimlaneHead=0;swimlaneBody=0;fillColor=none;collapsible=0;dropTarget=0;points=[[0,0.5],[1,0.5]];portConstraint=eastwest;top=0;left=0;right=0;bottom=0;" vertex="1" parent="LrqFi6MrWJt78rN_CnwS-81">
          <mxGeometry y="60" width="160" height="30" as="geometry" />
        </mxCell>
        <mxCell id="LrqFi6MrWJt78rN_CnwS-86" value="" style="shape=partialRectangle;connectable=0;fillColor=none;top=0;left=0;bottom=0;right=0;editable=1;overflow=hidden;whiteSpace=wrap;html=1;" vertex="1" parent="LrqFi6MrWJt78rN_CnwS-85">
          <mxGeometry width="30" height="30" as="geometry">
            <mxRectangle width="30" height="30" as="alternateBounds" />
          </mxGeometry>
        </mxCell>
        <mxCell id="LrqFi6MrWJt78rN_CnwS-87" value="이름" style="shape=partialRectangle;connectable=0;fillColor=none;top=0;left=0;bottom=0;right=0;align=left;spacingLeft=6;overflow=hidden;whiteSpace=wrap;html=1;" vertex="1" parent="LrqFi6MrWJt78rN_CnwS-85">
          <mxGeometry x="30" width="130" height="30" as="geometry">
            <mxRectangle width="130" height="30" as="alternateBounds" />
          </mxGeometry>
        </mxCell>
        <mxCell id="LrqFi6MrWJt78rN_CnwS-88" value="" style="shape=tableRow;horizontal=0;startSize=0;swimlaneHead=0;swimlaneBody=0;fillColor=none;collapsible=0;dropTarget=0;points=[[0,0.5],[1,0.5]];portConstraint=eastwest;top=0;left=0;right=0;bottom=0;" vertex="1" parent="LrqFi6MrWJt78rN_CnwS-81">
          <mxGeometry y="90" width="160" height="30" as="geometry" />
        </mxCell>
        <mxCell id="LrqFi6MrWJt78rN_CnwS-89" value="" style="shape=partialRectangle;connectable=0;fillColor=none;top=0;left=0;bottom=0;right=0;editable=1;overflow=hidden;whiteSpace=wrap;html=1;" vertex="1" parent="LrqFi6MrWJt78rN_CnwS-88">
          <mxGeometry width="30" height="30" as="geometry">
            <mxRectangle width="30" height="30" as="alternateBounds" />
          </mxGeometry>
        </mxCell>
        <mxCell id="LrqFi6MrWJt78rN_CnwS-90" value="Phone" style="shape=partialRectangle;connectable=0;fillColor=none;top=0;left=0;bottom=0;right=0;align=left;spacingLeft=6;overflow=hidden;whiteSpace=wrap;html=1;" vertex="1" parent="LrqFi6MrWJt78rN_CnwS-88">
          <mxGeometry x="30" width="130" height="30" as="geometry">
            <mxRectangle width="130" height="30" as="alternateBounds" />
          </mxGeometry>
        </mxCell>
        <mxCell id="LrqFi6MrWJt78rN_CnwS-91" value="" style="shape=tableRow;horizontal=0;startSize=0;swimlaneHead=0;swimlaneBody=0;fillColor=none;collapsible=0;dropTarget=0;points=[[0,0.5],[1,0.5]];portConstraint=eastwest;top=0;left=0;right=0;bottom=0;" vertex="1" parent="LrqFi6MrWJt78rN_CnwS-81">
          <mxGeometry y="120" width="160" height="30" as="geometry" />
        </mxCell>
        <mxCell id="LrqFi6MrWJt78rN_CnwS-92" value="FK" style="shape=partialRectangle;connectable=0;fillColor=none;top=0;left=0;bottom=0;right=0;editable=1;overflow=hidden;whiteSpace=wrap;html=1;" vertex="1" parent="LrqFi6MrWJt78rN_CnwS-91">
          <mxGeometry width="30" height="30" as="geometry">
            <mxRectangle width="30" height="30" as="alternateBounds" />
          </mxGeometry>
        </mxCell>
        <mxCell id="LrqFi6MrWJt78rN_CnwS-93" value="Code" style="shape=partialRectangle;connectable=0;fillColor=none;top=0;left=0;bottom=0;right=0;align=left;spacingLeft=6;overflow=hidden;whiteSpace=wrap;html=1;" vertex="1" parent="LrqFi6MrWJt78rN_CnwS-91">
          <mxGeometry x="30" width="130" height="30" as="geometry">
            <mxRectangle width="130" height="30" as="alternateBounds" />
          </mxGeometry>
        </mxCell>
        <mxCell id="LrqFi6MrWJt78rN_CnwS-94" value="" style="shape=tableRow;horizontal=0;startSize=0;swimlaneHead=0;swimlaneBody=0;fillColor=none;collapsible=0;dropTarget=0;points=[[0,0.5],[1,0.5]];portConstraint=eastwest;top=0;left=0;right=0;bottom=0;" vertex="1" parent="LrqFi6MrWJt78rN_CnwS-81">
          <mxGeometry y="150" width="160" height="30" as="geometry" />
        </mxCell>
        <mxCell id="LrqFi6MrWJt78rN_CnwS-95" value="" style="shape=partialRectangle;connectable=0;fillColor=none;top=0;left=0;bottom=0;right=0;editable=1;overflow=hidden;whiteSpace=wrap;html=1;" vertex="1" parent="LrqFi6MrWJt78rN_CnwS-94">
          <mxGeometry width="30" height="30" as="geometry">
            <mxRectangle width="30" height="30" as="alternateBounds" />
          </mxGeometry>
        </mxCell>
        <mxCell id="LrqFi6MrWJt78rN_CnwS-96" value="ETC.." style="shape=partialRectangle;connectable=0;fillColor=none;top=0;left=0;bottom=0;right=0;align=left;spacingLeft=6;overflow=hidden;whiteSpace=wrap;html=1;" vertex="1" parent="LrqFi6MrWJt78rN_CnwS-94">
          <mxGeometry x="30" width="130" height="30" as="geometry">
            <mxRectangle width="130" height="30" as="alternateBounds" />
          </mxGeometry>
        </mxCell>
        <mxCell id="LrqFi6MrWJt78rN_CnwS-146" value="" style="edgeStyle=orthogonalEdgeStyle;rounded=0;orthogonalLoop=1;jettySize=auto;html=1;startArrow=ERone;startFill=0;endArrow=ERoneToMany;endFill=0;" edge="1" parent="1" source="LrqFi6MrWJt78rN_CnwS-98" target="LrqFi6MrWJt78rN_CnwS-130">
          <mxGeometry relative="1" as="geometry">
            <Array as="points">
              <mxPoint x="820" y="390" />
              <mxPoint x="820" y="390" />
            </Array>
          </mxGeometry>
        </mxCell>
        <mxCell id="LrqFi6MrWJt78rN_CnwS-98" value="매장" style="shape=table;startSize=30;container=1;collapsible=1;childLayout=tableLayout;fixedRows=1;rowLines=0;fontStyle=1;align=center;resizeLast=1;html=1;" vertex="1" parent="1">
          <mxGeometry x="625" y="320" width="160" height="180" as="geometry" />
        </mxCell>
        <mxCell id="LrqFi6MrWJt78rN_CnwS-99" value="" style="shape=tableRow;horizontal=0;startSize=0;swimlaneHead=0;swimlaneBody=0;fillColor=none;collapsible=0;dropTarget=0;points=[[0,0.5],[1,0.5]];portConstraint=eastwest;top=0;left=0;right=0;bottom=1;" vertex="1" parent="LrqFi6MrWJt78rN_CnwS-98">
          <mxGeometry y="30" width="160" height="30" as="geometry" />
        </mxCell>
        <mxCell id="LrqFi6MrWJt78rN_CnwS-100" value="PK" style="shape=partialRectangle;connectable=0;fillColor=none;top=0;left=0;bottom=0;right=0;fontStyle=1;overflow=hidden;whiteSpace=wrap;html=1;" vertex="1" parent="LrqFi6MrWJt78rN_CnwS-99">
          <mxGeometry width="30" height="30" as="geometry">
            <mxRectangle width="30" height="30" as="alternateBounds" />
          </mxGeometry>
        </mxCell>
        <mxCell id="LrqFi6MrWJt78rN_CnwS-101" value="CODE" style="shape=partialRectangle;connectable=0;fillColor=none;top=0;left=0;bottom=0;right=0;align=left;spacingLeft=6;fontStyle=5;overflow=hidden;whiteSpace=wrap;html=1;" vertex="1" parent="LrqFi6MrWJt78rN_CnwS-99">
          <mxGeometry x="30" width="130" height="30" as="geometry">
            <mxRectangle width="130" height="30" as="alternateBounds" />
          </mxGeometry>
        </mxCell>
        <mxCell id="LrqFi6MrWJt78rN_CnwS-102" value="" style="shape=tableRow;horizontal=0;startSize=0;swimlaneHead=0;swimlaneBody=0;fillColor=none;collapsible=0;dropTarget=0;points=[[0,0.5],[1,0.5]];portConstraint=eastwest;top=0;left=0;right=0;bottom=0;" vertex="1" parent="LrqFi6MrWJt78rN_CnwS-98">
          <mxGeometry y="60" width="160" height="30" as="geometry" />
        </mxCell>
        <mxCell id="LrqFi6MrWJt78rN_CnwS-103" value="" style="shape=partialRectangle;connectable=0;fillColor=none;top=0;left=0;bottom=0;right=0;editable=1;overflow=hidden;whiteSpace=wrap;html=1;" vertex="1" parent="LrqFi6MrWJt78rN_CnwS-102">
          <mxGeometry width="30" height="30" as="geometry">
            <mxRectangle width="30" height="30" as="alternateBounds" />
          </mxGeometry>
        </mxCell>
        <mxCell id="LrqFi6MrWJt78rN_CnwS-104" value="이름" style="shape=partialRectangle;connectable=0;fillColor=none;top=0;left=0;bottom=0;right=0;align=left;spacingLeft=6;overflow=hidden;whiteSpace=wrap;html=1;" vertex="1" parent="LrqFi6MrWJt78rN_CnwS-102">
          <mxGeometry x="30" width="130" height="30" as="geometry">
            <mxRectangle width="130" height="30" as="alternateBounds" />
          </mxGeometry>
        </mxCell>
        <mxCell id="LrqFi6MrWJt78rN_CnwS-105" value="" style="shape=tableRow;horizontal=0;startSize=0;swimlaneHead=0;swimlaneBody=0;fillColor=none;collapsible=0;dropTarget=0;points=[[0,0.5],[1,0.5]];portConstraint=eastwest;top=0;left=0;right=0;bottom=0;" vertex="1" parent="LrqFi6MrWJt78rN_CnwS-98">
          <mxGeometry y="90" width="160" height="30" as="geometry" />
        </mxCell>
        <mxCell id="LrqFi6MrWJt78rN_CnwS-106" value="" style="shape=partialRectangle;connectable=0;fillColor=none;top=0;left=0;bottom=0;right=0;editable=1;overflow=hidden;whiteSpace=wrap;html=1;" vertex="1" parent="LrqFi6MrWJt78rN_CnwS-105">
          <mxGeometry width="30" height="30" as="geometry">
            <mxRectangle width="30" height="30" as="alternateBounds" />
          </mxGeometry>
        </mxCell>
        <mxCell id="LrqFi6MrWJt78rN_CnwS-107" value="Tel" style="shape=partialRectangle;connectable=0;fillColor=none;top=0;left=0;bottom=0;right=0;align=left;spacingLeft=6;overflow=hidden;whiteSpace=wrap;html=1;" vertex="1" parent="LrqFi6MrWJt78rN_CnwS-105">
          <mxGeometry x="30" width="130" height="30" as="geometry">
            <mxRectangle width="130" height="30" as="alternateBounds" />
          </mxGeometry>
        </mxCell>
        <mxCell id="LrqFi6MrWJt78rN_CnwS-108" value="" style="shape=tableRow;horizontal=0;startSize=0;swimlaneHead=0;swimlaneBody=0;fillColor=none;collapsible=0;dropTarget=0;points=[[0,0.5],[1,0.5]];portConstraint=eastwest;top=0;left=0;right=0;bottom=0;" vertex="1" parent="LrqFi6MrWJt78rN_CnwS-98">
          <mxGeometry y="120" width="160" height="30" as="geometry" />
        </mxCell>
        <mxCell id="LrqFi6MrWJt78rN_CnwS-109" value="" style="shape=partialRectangle;connectable=0;fillColor=none;top=0;left=0;bottom=0;right=0;editable=1;overflow=hidden;whiteSpace=wrap;html=1;" vertex="1" parent="LrqFi6MrWJt78rN_CnwS-108">
          <mxGeometry width="30" height="30" as="geometry">
            <mxRectangle width="30" height="30" as="alternateBounds" />
          </mxGeometry>
        </mxCell>
        <mxCell id="LrqFi6MrWJt78rN_CnwS-110" value="주소" style="shape=partialRectangle;connectable=0;fillColor=none;top=0;left=0;bottom=0;right=0;align=left;spacingLeft=6;overflow=hidden;whiteSpace=wrap;html=1;" vertex="1" parent="LrqFi6MrWJt78rN_CnwS-108">
          <mxGeometry x="30" width="130" height="30" as="geometry">
            <mxRectangle width="130" height="30" as="alternateBounds" />
          </mxGeometry>
        </mxCell>
        <mxCell id="LrqFi6MrWJt78rN_CnwS-111" value="" style="shape=tableRow;horizontal=0;startSize=0;swimlaneHead=0;swimlaneBody=0;fillColor=none;collapsible=0;dropTarget=0;points=[[0,0.5],[1,0.5]];portConstraint=eastwest;top=0;left=0;right=0;bottom=0;" vertex="1" parent="LrqFi6MrWJt78rN_CnwS-98">
          <mxGeometry y="150" width="160" height="30" as="geometry" />
        </mxCell>
        <mxCell id="LrqFi6MrWJt78rN_CnwS-112" value="" style="shape=partialRectangle;connectable=0;fillColor=none;top=0;left=0;bottom=0;right=0;editable=1;overflow=hidden;whiteSpace=wrap;html=1;" vertex="1" parent="LrqFi6MrWJt78rN_CnwS-111">
          <mxGeometry width="30" height="30" as="geometry">
            <mxRectangle width="30" height="30" as="alternateBounds" />
          </mxGeometry>
        </mxCell>
        <mxCell id="LrqFi6MrWJt78rN_CnwS-113" value="ETC.." style="shape=partialRectangle;connectable=0;fillColor=none;top=0;left=0;bottom=0;right=0;align=left;spacingLeft=6;overflow=hidden;whiteSpace=wrap;html=1;" vertex="1" parent="LrqFi6MrWJt78rN_CnwS-111">
          <mxGeometry x="30" width="130" height="30" as="geometry">
            <mxRectangle width="130" height="30" as="alternateBounds" />
          </mxGeometry>
        </mxCell>
        <mxCell id="LrqFi6MrWJt78rN_CnwS-114" value="종업원" style="shape=table;startSize=30;container=1;collapsible=1;childLayout=tableLayout;fixedRows=1;rowLines=0;fontStyle=1;align=center;resizeLast=1;html=1;" vertex="1" parent="1">
          <mxGeometry x="1070" y="320" width="160" height="150" as="geometry" />
        </mxCell>
        <mxCell id="LrqFi6MrWJt78rN_CnwS-115" value="" style="shape=tableRow;horizontal=0;startSize=0;swimlaneHead=0;swimlaneBody=0;fillColor=none;collapsible=0;dropTarget=0;points=[[0,0.5],[1,0.5]];portConstraint=eastwest;top=0;left=0;right=0;bottom=1;" vertex="1" parent="LrqFi6MrWJt78rN_CnwS-114">
          <mxGeometry y="30" width="160" height="30" as="geometry" />
        </mxCell>
        <mxCell id="LrqFi6MrWJt78rN_CnwS-116" value="PK" style="shape=partialRectangle;connectable=0;fillColor=none;top=0;left=0;bottom=0;right=0;fontStyle=1;overflow=hidden;whiteSpace=wrap;html=1;" vertex="1" parent="LrqFi6MrWJt78rN_CnwS-115">
          <mxGeometry width="30" height="30" as="geometry">
            <mxRectangle width="30" height="30" as="alternateBounds" />
          </mxGeometry>
        </mxCell>
        <mxCell id="LrqFi6MrWJt78rN_CnwS-117" value="사번" style="shape=partialRectangle;connectable=0;fillColor=none;top=0;left=0;bottom=0;right=0;align=left;spacingLeft=6;fontStyle=5;overflow=hidden;whiteSpace=wrap;html=1;" vertex="1" parent="LrqFi6MrWJt78rN_CnwS-115">
          <mxGeometry x="30" width="130" height="30" as="geometry">
            <mxRectangle width="130" height="30" as="alternateBounds" />
          </mxGeometry>
        </mxCell>
        <mxCell id="LrqFi6MrWJt78rN_CnwS-118" value="" style="shape=tableRow;horizontal=0;startSize=0;swimlaneHead=0;swimlaneBody=0;fillColor=none;collapsible=0;dropTarget=0;points=[[0,0.5],[1,0.5]];portConstraint=eastwest;top=0;left=0;right=0;bottom=0;" vertex="1" parent="LrqFi6MrWJt78rN_CnwS-114">
          <mxGeometry y="60" width="160" height="30" as="geometry" />
        </mxCell>
        <mxCell id="LrqFi6MrWJt78rN_CnwS-119" value="" style="shape=partialRectangle;connectable=0;fillColor=none;top=0;left=0;bottom=0;right=0;editable=1;overflow=hidden;whiteSpace=wrap;html=1;" vertex="1" parent="LrqFi6MrWJt78rN_CnwS-118">
          <mxGeometry width="30" height="30" as="geometry">
            <mxRectangle width="30" height="30" as="alternateBounds" />
          </mxGeometry>
        </mxCell>
        <mxCell id="LrqFi6MrWJt78rN_CnwS-120" value="이름" style="shape=partialRectangle;connectable=0;fillColor=none;top=0;left=0;bottom=0;right=0;align=left;spacingLeft=6;overflow=hidden;whiteSpace=wrap;html=1;" vertex="1" parent="LrqFi6MrWJt78rN_CnwS-118">
          <mxGeometry x="30" width="130" height="30" as="geometry">
            <mxRectangle width="130" height="30" as="alternateBounds" />
          </mxGeometry>
        </mxCell>
        <mxCell id="LrqFi6MrWJt78rN_CnwS-121" value="" style="shape=tableRow;horizontal=0;startSize=0;swimlaneHead=0;swimlaneBody=0;fillColor=none;collapsible=0;dropTarget=0;points=[[0,0.5],[1,0.5]];portConstraint=eastwest;top=0;left=0;right=0;bottom=0;" vertex="1" parent="LrqFi6MrWJt78rN_CnwS-114">
          <mxGeometry y="90" width="160" height="30" as="geometry" />
        </mxCell>
        <mxCell id="LrqFi6MrWJt78rN_CnwS-122" value="" style="shape=partialRectangle;connectable=0;fillColor=none;top=0;left=0;bottom=0;right=0;editable=1;overflow=hidden;whiteSpace=wrap;html=1;" vertex="1" parent="LrqFi6MrWJt78rN_CnwS-121">
          <mxGeometry width="30" height="30" as="geometry">
            <mxRectangle width="30" height="30" as="alternateBounds" />
          </mxGeometry>
        </mxCell>
        <mxCell id="LrqFi6MrWJt78rN_CnwS-123" value="Phone" style="shape=partialRectangle;connectable=0;fillColor=none;top=0;left=0;bottom=0;right=0;align=left;spacingLeft=6;overflow=hidden;whiteSpace=wrap;html=1;" vertex="1" parent="LrqFi6MrWJt78rN_CnwS-121">
          <mxGeometry x="30" width="130" height="30" as="geometry">
            <mxRectangle width="130" height="30" as="alternateBounds" />
          </mxGeometry>
        </mxCell>
        <mxCell id="LrqFi6MrWJt78rN_CnwS-127" value="" style="shape=tableRow;horizontal=0;startSize=0;swimlaneHead=0;swimlaneBody=0;fillColor=none;collapsible=0;dropTarget=0;points=[[0,0.5],[1,0.5]];portConstraint=eastwest;top=0;left=0;right=0;bottom=0;" vertex="1" parent="LrqFi6MrWJt78rN_CnwS-114">
          <mxGeometry y="120" width="160" height="30" as="geometry" />
        </mxCell>
        <mxCell id="LrqFi6MrWJt78rN_CnwS-128" value="" style="shape=partialRectangle;connectable=0;fillColor=none;top=0;left=0;bottom=0;right=0;editable=1;overflow=hidden;whiteSpace=wrap;html=1;" vertex="1" parent="LrqFi6MrWJt78rN_CnwS-127">
          <mxGeometry width="30" height="30" as="geometry">
            <mxRectangle width="30" height="30" as="alternateBounds" />
          </mxGeometry>
        </mxCell>
        <mxCell id="LrqFi6MrWJt78rN_CnwS-129" value="" style="shape=partialRectangle;connectable=0;fillColor=none;top=0;left=0;bottom=0;right=0;align=left;spacingLeft=6;overflow=hidden;whiteSpace=wrap;html=1;" vertex="1" parent="LrqFi6MrWJt78rN_CnwS-127">
          <mxGeometry x="30" width="130" height="30" as="geometry">
            <mxRectangle width="130" height="30" as="alternateBounds" />
          </mxGeometry>
        </mxCell>
        <mxCell id="LrqFi6MrWJt78rN_CnwS-130" value="소속" style="shape=table;startSize=30;container=1;collapsible=1;childLayout=tableLayout;fixedRows=1;rowLines=0;fontStyle=1;align=center;resizeLast=1;html=1;" vertex="1" parent="1">
          <mxGeometry x="850" y="320" width="160" height="120" as="geometry" />
        </mxCell>
        <mxCell id="LrqFi6MrWJt78rN_CnwS-131" value="" style="shape=tableRow;horizontal=0;startSize=0;swimlaneHead=0;swimlaneBody=0;fillColor=none;collapsible=0;dropTarget=0;points=[[0,0.5],[1,0.5]];portConstraint=eastwest;top=0;left=0;right=0;bottom=1;" vertex="1" parent="LrqFi6MrWJt78rN_CnwS-130">
          <mxGeometry y="30" width="160" height="30" as="geometry" />
        </mxCell>
        <mxCell id="LrqFi6MrWJt78rN_CnwS-132" value="PK" style="shape=partialRectangle;connectable=0;fillColor=none;top=0;left=0;bottom=0;right=0;fontStyle=1;overflow=hidden;whiteSpace=wrap;html=1;" vertex="1" parent="LrqFi6MrWJt78rN_CnwS-131">
          <mxGeometry width="30" height="30" as="geometry">
            <mxRectangle width="30" height="30" as="alternateBounds" />
          </mxGeometry>
        </mxCell>
        <mxCell id="LrqFi6MrWJt78rN_CnwS-133" value="No" style="shape=partialRectangle;connectable=0;fillColor=none;top=0;left=0;bottom=0;right=0;align=left;spacingLeft=6;fontStyle=5;overflow=hidden;whiteSpace=wrap;html=1;" vertex="1" parent="LrqFi6MrWJt78rN_CnwS-131">
          <mxGeometry x="30" width="130" height="30" as="geometry">
            <mxRectangle width="130" height="30" as="alternateBounds" />
          </mxGeometry>
        </mxCell>
        <mxCell id="LrqFi6MrWJt78rN_CnwS-134" value="" style="shape=tableRow;horizontal=0;startSize=0;swimlaneHead=0;swimlaneBody=0;fillColor=none;collapsible=0;dropTarget=0;points=[[0,0.5],[1,0.5]];portConstraint=eastwest;top=0;left=0;right=0;bottom=0;" vertex="1" parent="LrqFi6MrWJt78rN_CnwS-130">
          <mxGeometry y="60" width="160" height="30" as="geometry" />
        </mxCell>
        <mxCell id="LrqFi6MrWJt78rN_CnwS-135" value="FK" style="shape=partialRectangle;connectable=0;fillColor=none;top=0;left=0;bottom=0;right=0;editable=1;overflow=hidden;whiteSpace=wrap;html=1;" vertex="1" parent="LrqFi6MrWJt78rN_CnwS-134">
          <mxGeometry width="30" height="30" as="geometry">
            <mxRectangle width="30" height="30" as="alternateBounds" />
          </mxGeometry>
        </mxCell>
        <mxCell id="LrqFi6MrWJt78rN_CnwS-136" value="CODE" style="shape=partialRectangle;connectable=0;fillColor=none;top=0;left=0;bottom=0;right=0;align=left;spacingLeft=6;overflow=hidden;whiteSpace=wrap;html=1;" vertex="1" parent="LrqFi6MrWJt78rN_CnwS-134">
          <mxGeometry x="30" width="130" height="30" as="geometry">
            <mxRectangle width="130" height="30" as="alternateBounds" />
          </mxGeometry>
        </mxCell>
        <mxCell id="LrqFi6MrWJt78rN_CnwS-137" value="" style="shape=tableRow;horizontal=0;startSize=0;swimlaneHead=0;swimlaneBody=0;fillColor=none;collapsible=0;dropTarget=0;points=[[0,0.5],[1,0.5]];portConstraint=eastwest;top=0;left=0;right=0;bottom=0;" vertex="1" parent="LrqFi6MrWJt78rN_CnwS-130">
          <mxGeometry y="90" width="160" height="30" as="geometry" />
        </mxCell>
        <mxCell id="LrqFi6MrWJt78rN_CnwS-138" value="FK" style="shape=partialRectangle;connectable=0;fillColor=none;top=0;left=0;bottom=0;right=0;editable=1;overflow=hidden;whiteSpace=wrap;html=1;" vertex="1" parent="LrqFi6MrWJt78rN_CnwS-137">
          <mxGeometry width="30" height="30" as="geometry">
            <mxRectangle width="30" height="30" as="alternateBounds" />
          </mxGeometry>
        </mxCell>
        <mxCell id="LrqFi6MrWJt78rN_CnwS-139" value="사번" style="shape=partialRectangle;connectable=0;fillColor=none;top=0;left=0;bottom=0;right=0;align=left;spacingLeft=6;overflow=hidden;whiteSpace=wrap;html=1;" vertex="1" parent="LrqFi6MrWJt78rN_CnwS-137">
          <mxGeometry x="30" width="130" height="30" as="geometry">
            <mxRectangle width="130" height="30" as="alternateBounds" />
          </mxGeometry>
        </mxCell>
        <mxCell id="LrqFi6MrWJt78rN_CnwS-148" value="" style="edgeStyle=entityRelationEdgeStyle;fontSize=12;html=1;endArrow=ERone;endFill=0;rounded=0;startArrow=ERone;startFill=0;exitX=0;exitY=0.5;exitDx=0;exitDy=0;" edge="1" parent="1" source="LrqFi6MrWJt78rN_CnwS-118" target="LrqFi6MrWJt78rN_CnwS-134">
          <mxGeometry width="100" height="100" relative="1" as="geometry">
            <mxPoint x="1040" y="395" as="sourcePoint" />
            <mxPoint x="830" y="360" as="targetPoint" />
          </mxGeometry>
        </mxCell>
        <mxCell id="LrqFi6MrWJt78rN_CnwS-149" value="쇼핑몰" style="text;html=1;align=center;verticalAlign=middle;resizable=0;points=[];autosize=1;strokeColor=none;fillColor=none;" vertex="1" parent="1">
          <mxGeometry x="30" y="528" width="60" height="30" as="geometry" />
        </mxCell>
        <mxCell id="LrqFi6MrWJt78rN_CnwS-150" value="엔티티 : 고객,제품,주문" style="text;html=1;align=center;verticalAlign=middle;resizable=0;points=[];autosize=1;strokeColor=none;fillColor=none;" vertex="1" parent="1">
          <mxGeometry x="30" y="558" width="150" height="30" as="geometry" />
        </mxCell>
        <mxCell id="LrqFi6MrWJt78rN_CnwS-151" value="속성 : 고객(U_ID,PW,NAME,EMAIL)" style="text;html=1;align=center;verticalAlign=middle;resizable=0;points=[];autosize=1;strokeColor=none;fillColor=none;" vertex="1" parent="1">
          <mxGeometry x="30" y="580" width="220" height="30" as="geometry" />
        </mxCell>
        <mxCell id="LrqFi6MrWJt78rN_CnwS-152" value="속성 : 제품(P_ID,P_NAME,CAT)" style="text;html=1;align=center;verticalAlign=middle;resizable=0;points=[];autosize=1;strokeColor=none;fillColor=none;" vertex="1" parent="1">
          <mxGeometry x="30" y="602" width="200" height="30" as="geometry" />
        </mxCell>
        <mxCell id="LrqFi6MrWJt78rN_CnwS-153" value="속성 : 주문(O_ID,P_ID,U_ID)" style="text;html=1;align=center;verticalAlign=middle;resizable=0;points=[];autosize=1;strokeColor=none;fillColor=none;" vertex="1" parent="1">
          <mxGeometry x="30" y="622" width="180" height="30" as="geometry" />
        </mxCell>
        <mxCell id="LrqFi6MrWJt78rN_CnwS-154" value="고객이 제품을 주문한다" style="text;html=1;align=center;verticalAlign=middle;resizable=0;points=[];autosize=1;strokeColor=none;fillColor=none;" vertex="1" parent="1">
          <mxGeometry x="240" y="558" width="150" height="30" as="geometry" />
        </mxCell>
        <mxCell id="LrqFi6MrWJt78rN_CnwS-159" value="" style="edgeStyle=orthogonalEdgeStyle;rounded=0;orthogonalLoop=1;jettySize=auto;html=1;endArrow=none;endFill=0;" edge="1" parent="1" source="LrqFi6MrWJt78rN_CnwS-156" target="LrqFi6MrWJt78rN_CnwS-158">
          <mxGeometry relative="1" as="geometry" />
        </mxCell>
        <mxCell id="LrqFi6MrWJt78rN_CnwS-156" value="고객" style="whiteSpace=wrap;html=1;" vertex="1" parent="1">
          <mxGeometry x="45" y="690" width="90" height="40" as="geometry" />
        </mxCell>
        <mxCell id="LrqFi6MrWJt78rN_CnwS-157" value="제품" style="whiteSpace=wrap;html=1;" vertex="1" parent="1">
          <mxGeometry x="330" y="690" width="90" height="40" as="geometry" />
        </mxCell>
        <mxCell id="LrqFi6MrWJt78rN_CnwS-162" value="" style="edgeStyle=orthogonalEdgeStyle;rounded=0;orthogonalLoop=1;jettySize=auto;html=1;endArrow=none;endFill=0;" edge="1" parent="1" source="LrqFi6MrWJt78rN_CnwS-158" target="LrqFi6MrWJt78rN_CnwS-157">
          <mxGeometry relative="1" as="geometry" />
        </mxCell>
        <mxCell id="LrqFi6MrWJt78rN_CnwS-158" value="주문" style="rhombus;whiteSpace=wrap;html=1;" vertex="1" parent="1">
          <mxGeometry x="195" y="670" width="80" height="80" as="geometry" />
        </mxCell>
        <mxCell id="LrqFi6MrWJt78rN_CnwS-167" value="" style="edgeStyle=orthogonalEdgeStyle;rounded=0;orthogonalLoop=1;jettySize=auto;html=1;endArrow=none;endFill=0;" edge="1" parent="1" source="LrqFi6MrWJt78rN_CnwS-163" target="LrqFi6MrWJt78rN_CnwS-156">
          <mxGeometry relative="1" as="geometry">
            <Array as="points">
              <mxPoint x="55" y="740" />
              <mxPoint x="90" y="740" />
            </Array>
          </mxGeometry>
        </mxCell>
        <mxCell id="LrqFi6MrWJt78rN_CnwS-163" value="&lt;u&gt;U_ID&lt;/u&gt;" style="ellipse;whiteSpace=wrap;html=1;" vertex="1" parent="1">
          <mxGeometry x="40" y="760" width="30" height="30" as="geometry" />
        </mxCell>
        <mxCell id="LrqFi6MrWJt78rN_CnwS-168" value="" style="edgeStyle=orthogonalEdgeStyle;rounded=0;orthogonalLoop=1;jettySize=auto;html=1;endArrow=none;endFill=0;" edge="1" parent="1" source="LrqFi6MrWJt78rN_CnwS-164" target="LrqFi6MrWJt78rN_CnwS-156">
          <mxGeometry relative="1" as="geometry">
            <Array as="points">
              <mxPoint x="90" y="750" />
              <mxPoint x="90" y="750" />
            </Array>
          </mxGeometry>
        </mxCell>
        <mxCell id="LrqFi6MrWJt78rN_CnwS-164" value="PW" style="ellipse;whiteSpace=wrap;html=1;" vertex="1" parent="1">
          <mxGeometry x="70" y="760" width="30" height="30" as="geometry" />
        </mxCell>
        <mxCell id="LrqFi6MrWJt78rN_CnwS-169" value="" style="edgeStyle=orthogonalEdgeStyle;rounded=0;orthogonalLoop=1;jettySize=auto;html=1;endArrow=none;endFill=0;" edge="1" parent="1" source="LrqFi6MrWJt78rN_CnwS-165" target="LrqFi6MrWJt78rN_CnwS-156">
          <mxGeometry relative="1" as="geometry" />
        </mxCell>
        <mxCell id="LrqFi6MrWJt78rN_CnwS-165" value="이름" style="ellipse;whiteSpace=wrap;html=1;" vertex="1" parent="1">
          <mxGeometry x="100" y="760" width="30" height="30" as="geometry" />
        </mxCell>
        <mxCell id="LrqFi6MrWJt78rN_CnwS-170" value="" style="edgeStyle=orthogonalEdgeStyle;rounded=0;orthogonalLoop=1;jettySize=auto;html=1;endArrow=none;endFill=0;" edge="1" parent="1" source="LrqFi6MrWJt78rN_CnwS-166" target="LrqFi6MrWJt78rN_CnwS-156">
          <mxGeometry relative="1" as="geometry">
            <Array as="points">
              <mxPoint x="150" y="740" />
              <mxPoint x="90" y="740" />
            </Array>
          </mxGeometry>
        </mxCell>
        <mxCell id="LrqFi6MrWJt78rN_CnwS-166" value="메일" style="ellipse;whiteSpace=wrap;html=1;" vertex="1" parent="1">
          <mxGeometry x="130" y="760" width="30" height="30" as="geometry" />
        </mxCell>
        <mxCell id="LrqFi6MrWJt78rN_CnwS-174" value="" style="edgeStyle=orthogonalEdgeStyle;rounded=0;orthogonalLoop=1;jettySize=auto;html=1;endArrow=none;endFill=0;" edge="1" parent="1" source="LrqFi6MrWJt78rN_CnwS-171" target="LrqFi6MrWJt78rN_CnwS-157">
          <mxGeometry relative="1" as="geometry">
            <Array as="points">
              <mxPoint x="340" y="740" />
              <mxPoint x="380" y="740" />
            </Array>
          </mxGeometry>
        </mxCell>
        <mxCell id="LrqFi6MrWJt78rN_CnwS-171" value="P_ID" style="ellipse;whiteSpace=wrap;html=1;" vertex="1" parent="1">
          <mxGeometry x="320" y="760" width="40" height="30" as="geometry" />
        </mxCell>
        <mxCell id="LrqFi6MrWJt78rN_CnwS-178" value="" style="edgeStyle=orthogonalEdgeStyle;rounded=0;orthogonalLoop=1;jettySize=auto;html=1;endArrow=none;endFill=0;" edge="1" parent="1" target="LrqFi6MrWJt78rN_CnwS-157">
          <mxGeometry relative="1" as="geometry">
            <mxPoint x="380" y="740" as="sourcePoint" />
            <Array as="points">
              <mxPoint x="380" y="730" />
              <mxPoint x="380" y="730" />
            </Array>
          </mxGeometry>
        </mxCell>
        <mxCell id="LrqFi6MrWJt78rN_CnwS-180" value="" style="edgeStyle=orthogonalEdgeStyle;rounded=0;orthogonalLoop=1;jettySize=auto;html=1;endArrow=none;endFill=0;" edge="1" parent="1" source="LrqFi6MrWJt78rN_CnwS-172" target="LrqFi6MrWJt78rN_CnwS-157">
          <mxGeometry relative="1" as="geometry">
            <Array as="points">
              <mxPoint x="380" y="740" />
              <mxPoint x="380" y="740" />
            </Array>
          </mxGeometry>
        </mxCell>
        <mxCell id="LrqFi6MrWJt78rN_CnwS-172" value="&lt;font style=&quot;font-size: 5px;&quot;&gt;제품명&lt;/font&gt;" style="ellipse;whiteSpace=wrap;html=1;" vertex="1" parent="1">
          <mxGeometry x="360" y="760" width="40" height="30" as="geometry" />
        </mxCell>
        <mxCell id="LrqFi6MrWJt78rN_CnwS-179" value="" style="edgeStyle=orthogonalEdgeStyle;rounded=0;orthogonalLoop=1;jettySize=auto;html=1;endArrow=none;endFill=0;" edge="1" parent="1" source="LrqFi6MrWJt78rN_CnwS-173" target="LrqFi6MrWJt78rN_CnwS-157">
          <mxGeometry relative="1" as="geometry">
            <Array as="points">
              <mxPoint x="420" y="740" />
              <mxPoint x="380" y="740" />
            </Array>
          </mxGeometry>
        </mxCell>
        <mxCell id="LrqFi6MrWJt78rN_CnwS-173" value="&lt;span style=&quot;font-size: 5px;&quot;&gt;CAT&lt;/span&gt;" style="ellipse;whiteSpace=wrap;html=1;" vertex="1" parent="1">
          <mxGeometry x="400" y="760" width="40" height="30" as="geometry" />
        </mxCell>
        <mxCell id="LrqFi6MrWJt78rN_CnwS-181" value="N" style="text;html=1;align=center;verticalAlign=middle;resizable=0;points=[];autosize=1;strokeColor=none;fillColor=none;" vertex="1" parent="1">
          <mxGeometry x="190" y="670" width="30" height="30" as="geometry" />
        </mxCell>
        <mxCell id="LrqFi6MrWJt78rN_CnwS-182" value="M" style="text;html=1;align=center;verticalAlign=middle;resizable=0;points=[];autosize=1;strokeColor=none;fillColor=none;" vertex="1" parent="1">
          <mxGeometry x="260" y="670" width="30" height="30" as="geometry" />
        </mxCell>
        <mxCell id="LrqFi6MrWJt78rN_CnwS-183" value="U_ID&lt;br&gt;(FK)" style="ellipse;whiteSpace=wrap;html=1;" vertex="1" parent="1">
          <mxGeometry x="220" y="760" width="40" height="30" as="geometry" />
        </mxCell>
        <mxCell id="LrqFi6MrWJt78rN_CnwS-184" value="P_ID&lt;br&gt;(FK)" style="ellipse;whiteSpace=wrap;html=1;" vertex="1" parent="1">
          <mxGeometry x="260" y="760" width="40" height="30" as="geometry" />
        </mxCell>
        <mxCell id="LrqFi6MrWJt78rN_CnwS-185" value="&lt;u&gt;O_ID&lt;/u&gt;" style="ellipse;whiteSpace=wrap;html=1;" vertex="1" parent="1">
          <mxGeometry x="190" y="760" width="30" height="30" as="geometry" />
        </mxCell>
      </root>
    </mxGraphModel>
  </diagram>
</mxfile>
